<svg width="66" height="30" viewBox="0 0 66 30" fill="none" xmlns="http://www.w3.org/2000/svg">
<path d="M36.6999 20.942L41.6407 21.9526C43.1753 22.2707 43.4186 22.8883 43.4186 23.5246C43.4186 24.3294 42.8946 24.9844 41.3225 24.9844C39.9002 24.9844 39.0954 24.3294 39.058 22.7199H30.9357V17.7043C30.9357 17.4984 30.9357 17.2926 30.9357 17.0867C31.8715 19.5758 34.267 20.4367 36.6999 20.942ZM21.859 22.514C21.859 23.8802 20.8858 24.6475 19.8004 24.6475C18.6775 24.6475 17.7043 24.1609 17.7043 22.8322C17.7043 21.5783 18.3968 20.287 21.0917 20.1185L21.859 20.0811V22.514ZM62.0586 20.8484V14.6163H65.6893V8.47785H62.0586V2.82595H52.8509V8.47785H49.8565V10.3306C48.0225 8.55271 44.9532 7.84155 41.1728 7.84155C35.0343 7.84155 31.0106 9.80661 30.5427 13.6806C29.5883 9.69432 26.781 7.84155 20.68 7.84155C14.2046 7.84155 9.35745 9.69432 9.35745 15.2714H17.854C17.854 13.3624 18.8646 12.8384 19.9127 12.8384C21.4099 12.8384 21.8964 13.8116 21.8964 15.1029V16.1135L21.0543 16.151C14.9906 16.4504 10.6488 17.6107 9.24517 20.8297V0H0V29.345H9.20774V26.0512C10.2745 28.6712 12.932 29.8316 15.9638 29.8316C18.5465 29.8316 21.1853 29.0268 22.6263 26.912V29.345H30.917V26.3319C32.4891 29.083 36.1385 30 40.8921 30C47.199 30 52.0462 27.8665 52.0462 23.3375C52.0462 19.4635 49.7442 17.592 46.7124 16.9557L42.015 15.9451C40.0312 15.4959 39.2265 15.1778 39.2265 14.2046C39.2265 13.3063 40.1248 12.8759 41.2102 12.8759C42.6326 12.8759 43.2314 13.6806 43.2314 14.9719H51.6344C51.6344 14.8596 51.6344 14.7473 51.6157 14.6538H52.7948V21.4473C52.7948 28.1098 56.1073 29.7006 60.9919 29.7006C62.4517 29.7006 63.9488 29.5883 65.6332 29.3824V23.0006C65.0343 23.1691 64.4541 23.1691 64.0237 23.1691C62.5265 23.1129 62.0586 22.383 62.0586 20.8484Z" fill="white"/>
</svg>
